<?xml version="1.0" standalone="no"?>
<!DOCTYPE svg PUBLIC "-//W3C//DTD SVG 20010904//EN"
 "http://www.w3.org/TR/2001/REC-SVG-20010904/DTD/svg10.dtd">
<svg version="1.0" xmlns="http://www.w3.org/2000/svg"
 width="226.000000pt" height="223.000000pt" viewBox="0 0 226.000000 223.000000"
 preserveAspectRatio="xMidYMid meet">

<g transform="translate(0.000000,223.000000) scale(0.100000,-0.100000)"
fill="#000000" stroke="none">
<path d="M1470 2190 c0 -5 5 -10 11 -10 5 0 7 5 4 10 -3 6 -8 10 -11 10 -2 0
-4 -4 -4 -10z"/>
<path d="M1023 2093 c-9 -3 -13 -28 -13 -74 l0 -70 52 3 c32 2 52 8 54 16 1 7
0 8 -3 2 -2 -5 -20 -10 -38 -10 l-34 0 0 66 c0 72 0 73 -18 67z"/>
<path d="M1095 2090 c3 -5 8 -10 11 -10 2 0 4 5 4 10 0 6 -5 10 -11 10 -5 0
-7 -4 -4 -10z"/>
<path d="M1261 2054 c-27 -35 -27 -67 2 -96 12 -13 19 -19 15 -14 -20 26 -3
109 26 128 7 5 5 8 -6 8 -9 0 -26 -12 -37 -26z"/>
<path d="M863 2056 c3 -7 10 -37 17 -69 9 -44 16 -57 29 -57 17 0 17 3 5 43
-7 23 -15 54 -18 68 -3 14 -12 26 -21 26 -9 0 -14 -5 -12 -11z"/>
<path d="M1359 2048 c10 -28 -5 -89 -27 -105 -13 -11 -14 -13 -1 -13 47 0 76
81 45 123 -18 24 -27 21 -17 -5z"/>
<path d="M1065 2030 c-3 -5 -1 -10 4 -10 6 0 11 5 11 10 0 6 -2 10 -4 10 -3 0
-8 -4 -11 -10z"/>
<path d="M1464 2017 c-4 -12 -17 -43 -29 -69 -19 -40 -20 -48 -7 -53 19 -7 24
-2 26 28 0 14 4 23 8 21 3 -2 11 8 16 24 5 15 13 34 17 43 4 10 0 19 -9 22
-10 4 -17 -2 -22 -16z"/>
<path d="M714 1958 c-1 -29 1 -38 3 -20 2 17 7 32 11 32 4 0 22 -15 40 -34 22
-23 39 -32 52 -29 16 4 9 13 -37 54 -31 27 -59 49 -62 49 -4 0 -7 -24 -7 -52z"/>
<path d="M1547 1995 c3 -8 9 -12 14 -9 12 7 11 11 -5 17 -10 4 -13 1 -9 -8z"/>
<path d="M600 1966 c0 -2 7 -7 16 -10 8 -3 12 -2 9 4 -6 10 -25 14 -25 6z"/>
<path d="M1503 1952 c-7 -4 -9 -13 -4 -21 6 -9 10 -7 14 8 3 12 4 21 4 21 -1
0 -7 -4 -14 -8z"/>
<path d="M1700 1954 c0 -4 8 -13 18 -21 16 -14 16 -14 0 -9 -16 5 -18 -1 -17
-42 0 -26 4 -69 7 -95 l7 -49 24 32 c13 18 19 30 12 26 -8 -5 -11 12 -12 56
-1 35 -1 68 0 73 0 6 -8 16 -19 23 -11 7 -20 9 -20 6z"/>
<path d="M556 1931 c-10 -15 73 -121 90 -114 12 4 11 11 -9 37 -13 17 -32 43
-43 58 -20 29 -29 34 -38 19z"/>
<path d="M515 1899 c-4 -6 -5 -12 -2 -15 2 -3 7 2 10 11 7 17 1 20 -8 4z"/>
<path d="M711 1874 c0 -11 3 -14 6 -6 3 7 2 16 -1 19 -3 4 -6 -2 -5 -13z"/>
<path d="M1944 1878 c-4 -7 -4 -10 1 -6 4 4 15 2 24 -5 14 -11 14 -10 2 6 -16
20 -18 21 -27 5z"/>
<path d="M432 1871 c-10 -6 -7 -10 12 -13 21 -4 24 -3 15 8 -13 16 -11 16 -27
5z"/>
<path d="M391 1846 c-17 -20 -10 -67 11 -80 12 -7 29 -7 58 1 49 13 77 7 83
-16 4 -13 5 -13 6 2 0 10 -4 27 -10 39 -10 18 -17 19 -80 13 -64 -6 -69 -6
-69 12 0 10 5 24 12 31 7 7 9 12 6 12 -3 0 -11 -6 -17 -14z"/>
<path d="M1779 1833 c-13 -16 -12 -17 4 -4 9 7 17 15 17 17 0 8 -8 3 -21 -13z"/>
<path d="M1610 1825 c-7 -9 -8 -15 -2 -15 5 0 12 7 16 15 3 8 4 15 2 15 -2 0
-9 -7 -16 -15z"/>
<path d="M1812 1735 c-67 -65 -53 -86 16 -24 26 23 49 44 50 45 2 1 0 9 -5 17
-6 12 -19 3 -61 -38z"/>
<path d="M221 1744 c0 -11 3 -14 6 -6 3 7 2 16 -1 19 -3 4 -6 -2 -5 -13z"/>
<path d="M149 1703 c-30 -31 -45 -85 -22 -76 7 3 13 16 13 29 0 12 9 30 21 38
12 8 20 19 17 26 -2 6 -15 -1 -29 -17z"/>
<path d="M461 1693 c9 -11 15 -11 28 -1 9 7 17 13 19 14 1 0 -11 1 -28 1 -24
0 -27 -3 -19 -14z"/>
<path d="M1855 1655 c-25 -24 -33 -69 -15 -80 5 -3 7 0 4 9 -7 19 36 63 72 72
15 4 36 2 48 -5 17 -10 17 -9 -3 9 -32 27 -76 26 -106 -5z"/>
<path d="M285 1649 c-4 -6 -5 -12 -4 -13 2 -1 31 -19 63 -39 44 -27 62 -33 68
-25 4 8 -8 22 -37 40 -25 16 -49 28 -55 28 -5 0 -10 5 -10 10 0 13 -17 13 -25
-1z"/>
<path d="M1980 1584 c0 -8 5 -12 10 -9 6 3 10 10 10 16 0 5 -4 9 -10 9 -5 0
-10 -7 -10 -16z"/>
<path d="M240 1569 c0 -5 5 -7 10 -4 6 3 10 8 10 11 0 2 -4 4 -10 4 -5 0 -10
-5 -10 -11z"/>
<path d="M1892 1550 c-26 -21 -13 -37 17 -20 12 6 18 16 15 25 -7 18 -4 18
-32 -5z"/>
<path d="M220 1516 c0 -12 116 -64 130 -58 18 8 -4 27 -54 48 -69 28 -76 29
-76 10z"/>
<path d="M1970 1482 c-35 -12 -65 -24 -67 -25 -1 -2 0 -13 4 -25 5 -19 7 -20
17 -7 6 8 36 23 67 32 43 14 55 22 50 33 -5 14 -14 13 -71 -8z"/>
<path d="M1225 1475 c-16 -7 -55 -39 -85 -69 -52 -54 -80 -69 -80 -44 0 6 -3
9 -6 5 -3 -3 -15 2 -25 12 -32 30 -104 61 -141 61 -29 0 -198 -68 -244 -98
-58 -37 -207 -141 -237 -164 -35 -28 -37 -33 -37 -84 0 -49 2 -54 23 -54 12 0
40 -3 62 -5 27 -4 34 -3 21 3 -13 5 19 9 88 10 67 1 105 -2 101 -9 -4 -5 -11
-7 -16 -4 -5 4 -9 1 -9 -5 0 -7 -18 -9 -50 -6 l-50 5 0 -39 c0 -30 -5 -40 -20
-45 -22 -7 -27 -24 -7 -29 6 -2 21 -7 32 -11 19 -7 18 -8 -5 -15 l-25 -8 28
-1 c38 -1 33 28 -7 42 -10 4 -17 10 -14 12 10 10 138 14 138 5 0 -6 7 -10 15
-10 8 0 15 -8 16 -17 0 -13 3 -12 10 6 7 17 13 21 22 13 6 -5 26 -12 42 -14
17 -3 38 -9 48 -13 12 -5 17 -3 17 9 0 9 -8 16 -21 16 -12 0 -17 4 -13 11 4 8
0 9 -15 4 -12 -4 -21 -2 -21 4 0 6 -19 11 -42 11 l-43 1 29 15 c20 11 31 13
39 5 6 -6 18 -11 26 -11 8 0 11 3 8 7 -4 3 1 12 11 19 25 19 5 33 -53 36 l-51
3 1 36 c1 49 19 71 49 59 13 -4 41 -7 63 -4 39 3 41 2 45 -26 3 -16 1 -34 -4
-40 -5 -7 -4 -7 4 0 7 6 43 10 80 10 68 0 69 0 75 30 5 27 33 44 33 21 0 -15
77 27 84 45 10 25 53 9 97 -37 22 -23 37 -44 34 -49 -6 -10 32 -20 51 -13 7 2
16 13 19 24 8 24 60 26 69 2 9 -22 -7 -36 -43 -37 -23 -1 -27 -4 -19 -14 6 -7
17 -11 25 -8 7 3 13 -1 13 -9 0 -9 6 -12 16 -8 11 4 15 2 12 -8 -3 -10 -35
-13 -146 -14 -105 0 -138 -3 -129 -11 9 -9 113 -10 384 -5 204 3 374 9 378 12
3 4 9 45 12 93 4 64 3 86 -6 86 -7 0 -23 13 -37 29 -31 37 -70 46 -117 26 -60
-25 -85 -20 -132 28 -53 53 -89 85 -140 122 -22 16 -52 39 -66 52 -25 23 -59
23 -59 0 0 -8 4 -7 12 1 8 8 19 1 44 -31 18 -23 31 -44 28 -46 -3 -3 -8 -1
-12 4 -12 17 -56 51 -48 38 11 -20 -5 -15 -31 9 -30 28 -31 8 -3 -57 l20 -47
-26 5 c-18 3 -33 -2 -46 -15 -12 -12 -30 -18 -48 -16 -29 3 -33 -3 -22 -30 2
-7 2 -15 -1 -18 -2 -3 -12 14 -21 37 -19 47 -10 93 25 125 11 10 27 33 36 52
12 25 21 32 35 28 10 -3 27 -9 38 -12 30 -9 25 15 -6 26 -32 12 -41 12 -79 -5z
m-246 -101 c27 -31 46 -72 38 -80 -10 -11 -25 6 -32 36 -6 29 -7 29 -66 25
-52 -3 -59 -2 -49 11 10 11 10 14 0 14 -8 0 -10 3 -7 6 4 4 13 1 21 -5 8 -7
25 -11 38 -9 l23 5 -25 11 -25 11 31 0 c21 1 37 -7 53 -25z m401 -19 c11 -13
10 -14 -4 -9 -9 3 -16 10 -16 15 0 13 6 11 20 -6z m-420 -15 c0 -5 -2 -10 -4
-10 -3 0 -8 5 -11 10 -3 6 -1 10 4 10 6 0 11 -4 11 -10z m99 -71 c-14 -8 -29
-3 -29 11 0 4 9 6 21 3 15 -4 17 -8 8 -14z m101 -49 c0 -5 -5 -10 -11 -10 -5
0 -7 5 -4 10 3 6 8 10 11 10 2 0 4 -4 4 -10z m617 -112 c2 -16 -1 -28 -6 -28
-6 0 -8 -7 -5 -15 9 -23 -2 -18 -20 10 -20 30 -12 68 12 63 8 -2 17 -15 19
-30z m-304 -45 c-7 -2 -19 -2 -25 0 -7 3 -2 5 12 5 14 0 19 -2 13 -5z m275
-19 c8 -14 10 -14 24 -1 23 23 98 11 98 -16 0 -18 -5 -19 -55 -15 -30 3 -55 2
-55 -1 0 -6 -185 -7 -205 -1 -16 4 46 17 90 19 22 1 49 8 59 16 25 19 33 19
44 -1z m-1105 -61 c-7 -2 -21 -2 -30 0 -10 3 -4 5 12 5 17 0 24 -2 18 -5z"/>
<path d="M200 1471 c0 -6 4 -13 10 -16 6 -3 7 1 4 9 -7 18 -14 21 -14 7z"/>
<path d="M1977 1426 c-4 -10 1 -12 14 -9 23 6 24 9 5 16 -8 3 -17 0 -19 -7z"/>
<path d="M26 1387 c-21 -55 -21 -88 -1 -81 10 4 13 14 9 30 -4 14 -1 38 6 55
7 16 10 32 8 35 -3 2 -13 -15 -22 -39z"/>
<path d="M2055 1420 c-3 -5 -1 -10 4 -10 6 0 11 5 11 10 0 6 -2 10 -4 10 -3 0
-8 -4 -11 -10z"/>
<path d="M180 1380 c0 -13 15 -20 63 -30 34 -6 65 -16 68 -22 3 -5 9 -1 11 10
5 17 -4 22 -68 39 -69 18 -74 19 -74 3z"/>
<path d="M1926 1376 c3 -9 13 -16 22 -16 8 0 13 1 11 3 -2 1 -12 9 -22 16 -15
12 -17 12 -11 -3z"/>
<path d="M2025 1325 c-5 -2 -27 -6 -47 -10 -21 -3 -38 -12 -38 -19 0 -17 142
3 148 22 3 11 -37 16 -63 7z"/>
<path d="M160 1285 c0 -8 4 -15 10 -15 5 0 7 7 4 15 -4 8 -8 15 -10 15 -2 0
-4 -7 -4 -15z"/>
<path d="M259 1257 c-29 -21 -43 -38 -41 -49 4 -21 6 -21 -36 -9 -28 8 -32 7
-32 -9 0 -15 12 -19 66 -25 51 -5 69 -4 75 7 6 10 0 14 -27 16 -42 4 -41 19 3
41 26 13 50 48 40 58 -2 1 -23 -12 -48 -30z"/>
<path d="M1987 1250 c-15 -16 -27 -37 -27 -47 0 -13 6 -11 30 12 23 22 33 26
42 17 18 -18 46 -14 58 7 14 26 13 38 -2 23 -17 -17 -55 -15 -66 3 -7 13 -13
11 -35 -15z"/>
<path d="M10 1245 c0 -8 4 -15 10 -15 5 0 7 7 4 15 -4 8 -8 15 -10 15 -2 0 -4
-7 -4 -15z"/>
<path d="M20 1146 c0 -2 8 -10 18 -17 15 -13 16 -12 3 4 -13 16 -21 21 -21 13z"/>
<path d="M1960 1127 c0 -15 9 -17 75 -15 59 2 75 6 75 18 0 12 -15 15 -75 15
-65 0 -75 -2 -75 -18z"/>
<path d="M1110 1126 c-6 -8 -17 -13 -23 -11 -13 5 -26 -2 -45 -27 -12 -15 -6
-16 64 -17 51 0 80 -5 86 -13 4 -7 8 -9 8 -4 0 5 7 3 15 -4 9 -8 15 -8 15 -2
0 6 -9 14 -20 17 -11 3 -20 12 -20 19 0 15 -42 56 -57 56 -6 0 -16 -6 -23 -14z"/>
<path d="M281 1083 c7 -10 15 -20 16 -22 2 -2 3 5 3 17 0 14 -6 22 -16 22 -14
0 -15 -3 -3 -17z"/>
<path d="M10 1083 c0 -6 8 -17 18 -24 16 -13 16 -13 2 6 -8 11 -16 22 -17 24
-2 2 -3 0 -3 -6z"/>
<path d="M120 1045 c0 -19 2 -35 4 -35 2 0 6 16 8 35 2 19 0 35 -4 35 -4 0 -8
-16 -8 -35z"/>
<path d="M700 1059 c0 -5 19 -9 42 -9 49 0 47 5 -4 13 -21 3 -38 2 -38 -4z"/>
<path d="M2216 1057 c3 -10 9 -15 12 -12 3 3 0 11 -7 18 -10 9 -11 8 -5 -6z"/>
<path d="M1250 1051 c0 -5 7 -11 14 -14 10 -4 13 -1 9 9 -6 15 -23 19 -23 5z"/>
<path d="M196 1036 c10 -8 21 -11 24 -8 3 4 9 10 14 15 5 4 -6 7 -24 7 -32 0
-33 -1 -14 -14z"/>
<path d="M1107 1043 c-20 -2 -35 -8 -32 -14 4 -5 -3 -9 -14 -9 -12 0 -21 4
-21 9 0 5 -12 8 -27 8 l-28 0 30 -13 c22 -9 25 -13 11 -14 -11 0 -17 -3 -14
-6 4 -3 37 2 75 12 37 9 73 17 80 17 7 0 10 4 7 9 -3 4 -11 7 -17 6 -7 -1 -29
-3 -50 -5z"/>
<path d="M1185 1010 c-3 -5 -1 -10 4 -10 6 0 11 5 11 10 0 6 -2 10 -4 10 -3 0
-8 -4 -11 -10z"/>
<path d="M1258 1013 c7 -3 16 -2 19 1 4 3 -2 6 -13 5 -11 0 -14 -3 -6 -6z"/>
<path d="M209 990 c0 -10 -2 -11 -6 -2 -2 6 -20 12 -39 12 -29 0 -34 -3 -34
-24 0 -22 2 -23 43 -15 23 4 63 8 90 9 47 0 53 4 39 28 -12 18 -92 12 -93 -8z"/>
<path d="M2005 982 c-57 -19 -68 -29 -59 -57 4 -11 9 -44 13 -74 3 -30 11 -56
17 -58 19 -6 57 64 49 90 -25 83 -25 82 17 84 45 1 59 10 38 23 -18 11 -13 12
-75 -8z"/>
<path d="M813 983 c9 -2 23 -2 30 0 6 3 -1 5 -18 5 -16 0 -22 -2 -12 -5z"/>
<path d="M2206 977 c3 -10 9 -15 12 -12 3 3 0 11 -7 18 -10 9 -11 8 -5 -6z"/>
<path d="M928 973 c12 -2 30 -2 40 0 9 3 -1 5 -23 4 -22 0 -30 -2 -17 -4z"/>
<path d="M963 956 c-23 -7 -52 -11 -66 -9 -25 5 -57 -18 -57 -42 0 -7 12 -16
26 -19 30 -8 45 1 24 14 -25 15 -4 22 97 32 54 5 102 13 107 18 7 7 3 10 -11
10 -11 0 -33 2 -49 5 -16 2 -48 -2 -71 -9z"/>
<path d="M420 940 c0 -5 5 -10 10 -10 6 0 10 5 10 10 0 6 -4 10 -10 10 -5 0
-10 -4 -10 -10z"/>
<path d="M1850 930 c0 -5 5 -10 11 -10 5 0 7 5 4 10 -3 6 -8 10 -11 10 -2 0
-4 -4 -4 -10z"/>
<path d="M1780 920 c0 -5 7 -10 15 -10 8 0 15 5 15 10 0 6 -7 10 -15 10 -8 0
-15 -4 -15 -10z"/>
<path d="M1825 920 c3 -5 8 -10 11 -10 2 0 4 5 4 10 0 6 -5 10 -11 10 -5 0 -7
-4 -4 -10z"/>
<path d="M30 910 c0 -5 5 -10 11 -10 5 0 7 5 4 10 -3 6 -8 10 -11 10 -2 0 -4
-4 -4 -10z"/>
<path d="M1660 894 c-25 -8 -52 -17 -60 -20 -8 -3 -15 -5 -15 -4 0 0 -27 -9
-59 -20 -33 -11 -72 -20 -88 -20 -23 0 -29 -4 -26 -17 2 -13 17 -20 52 -25 57
-8 67 -15 43 -33 -10 -7 -14 -16 -9 -19 6 -3 12 1 16 9 3 8 14 15 25 15 11 0
23 5 26 10 3 6 2 10 -3 10 -5 0 -9 11 -9 25 0 21 3 24 23 21 13 -3 24 0 24 5
0 5 7 9 15 9 7 0 18 7 23 15 4 9 20 17 35 19 15 1 30 6 34 9 15 16 42 5 52
-20 10 -26 11 -26 6 -3 -2 14 -5 31 -5 38 0 16 -44 15 -100 -4z"/>
<path d="M730 885 c0 -8 4 -15 10 -15 5 0 7 7 4 15 -4 8 -8 15 -10 15 -2 0 -4
-7 -4 -15z"/>
<path d="M1800 891 c0 -5 5 -13 10 -16 6 -3 10 -2 10 4 0 5 -4 13 -10 16 -5 3
-10 2 -10 -4z"/>
<path d="M610 880 c0 -5 5 -10 10 -10 6 0 10 5 10 10 0 6 -4 10 -10 10 -5 0
-10 -4 -10 -10z"/>
<path d="M760 886 c0 -2 7 -7 16 -10 8 -3 12 -2 9 4 -6 10 -25 14 -25 6z"/>
<path d="M800 865 c0 -8 4 -15 8 -15 5 0 9 7 9 15 0 8 -4 15 -9 15 -4 0 -8 -7
-8 -15z"/>
<path d="M1790 848 c11 -36 27 -56 27 -33 0 8 -4 15 -9 15 -4 0 -8 9 -8 19 0
11 -4 22 -9 26 -6 3 -6 -7 -1 -27z"/>
<path d="M224 855 c-8 -19 3 -35 26 -35 19 0 34 25 24 41 -8 14 -44 10 -50 -6z"/>
<path d="M431 854 c0 -11 3 -14 6 -6 3 7 2 16 -1 19 -3 4 -6 -2 -5 -13z"/>
<path d="M510 860 c35 -11 50 -11 50 -2 0 5 -17 9 -37 9 -33 1 -35 0 -13 -7z"/>
<path d="M866 856 c3 -9 16 -16 28 -15 14 0 16 2 6 6 -8 3 -21 10 -28 16 -9 7
-11 6 -6 -7z"/>
<path d="M1360 861 c0 -10 42 -23 49 -15 7 6 -20 24 -36 24 -7 0 -13 -4 -13
-9z"/>
<path d="M608 853 c7 -3 16 -2 19 1 4 3 -2 6 -13 5 -11 0 -14 -3 -6 -6z"/>
<path d="M680 845 c7 -8 19 -15 28 -15 8 0 12 -3 9 -7 -10 -9 13 -33 31 -33 9
0 25 -9 37 -20 21 -20 24 -20 94 -5 88 18 96 22 80 41 -9 11 -9 14 0 14 7 0 9
5 6 10 -10 16 -25 12 -25 -6 0 -10 -5 -14 -16 -10 -8 3 -13 2 -10 -3 3 -5 -5
-8 -19 -7 -14 0 -25 5 -25 9 0 4 -10 3 -22 -4 -18 -10 -20 -9 -15 5 9 23 -2
20 -23 -6 l-19 -23 6 23 c3 13 1 22 -6 22 -6 0 -11 -4 -11 -10 0 -18 -32 -10
-62 15 -33 28 -58 34 -38 10z m255 -55 c-3 -5 -12 -10 -18 -10 -7 0 -6 4 3 10
19 12 23 12 15 0z"/>
<path d="M758 843 c7 -3 16 -2 19 1 4 3 -2 6 -13 5 -11 0 -14 -3 -6 -6z"/>
<path d="M447 824 c7 -3 9 -13 6 -22 -4 -15 -3 -15 6 -2 15 22 14 30 -6 29
-10 0 -13 -3 -6 -5z"/>
<path d="M1846 814 c-4 -9 -4 -19 -1 -22 2 -3 7 3 11 12 4 9 4 19 1 22 -2 3
-7 -3 -11 -12z"/>
<path d="M1768 797 c-3 -19 -2 -25 4 -19 6 6 8 18 6 28 -3 14 -5 12 -10 -9z"/>
<path d="M513 803 c-7 -2 -13 -10 -13 -16 0 -8 4 -7 12 1 18 18 38 14 38 -6 0
-13 12 -23 41 -31 22 -7 55 -21 72 -32 34 -20 67 -25 67 -10 0 5 -13 12 -29
16 -16 3 -36 13 -43 22 -11 14 -10 15 12 9 19 -6 21 -5 10 3 -13 9 -12 11 5
12 11 0 14 3 7 6 -7 3 -24 -3 -39 -12 -14 -9 -23 -12 -19 -7 4 7 -8 12 -31 14
-27 2 -38 8 -37 18 1 16 -29 23 -53 13z"/>
<path d="M520 780 c0 -5 5 -10 10 -10 6 0 10 5 10 10 0 6 -4 10 -10 10 -5 0
-10 -4 -10 -10z"/>
<path d="M1657 776 c-4 -10 -1 -13 9 -9 15 6 19 23 5 23 -5 0 -11 -7 -14 -14z"/>
<path d="M1713 775 c-7 -8 -13 -21 -13 -30 0 -10 -10 -15 -30 -15 -16 0 -30 4
-30 9 0 9 -109 6 -118 -4 -10 -10 53 -25 108 -27 60 -2 90 14 90 46 0 9 5 16
10 16 6 0 10 5 10 10 0 14 -13 12 -27 -5z"/>
<path d="M714 758 c3 -15 66 -24 66 -10 0 6 -7 13 -16 16 -8 3 -12 2 -9 -4 3
-6 -3 -10 -14 -10 -10 0 -22 5 -24 10 -3 6 -4 5 -3 -2z"/>
<path d="M2156 717 c3 -10 9 -15 12 -12 3 3 0 11 -7 18 -10 9 -11 8 -5 -6z"/>
<path d="M585 691 c-6 -11 9 -23 19 -14 9 9 7 23 -3 23 -6 0 -12 -4 -16 -9z"/>
<path d="M670 690 c8 -5 20 -10 25 -10 6 0 3 5 -5 10 -8 5 -19 10 -25 10 -5 0
-3 -5 5 -10z"/>
<path d="M802 685 c-36 -26 -26 -36 35 -33 57 3 82 21 41 30 -13 3 -30 8 -38
12 -8 3 -25 -1 -38 -9z m38 -15 c0 -5 -4 -10 -10 -10 -5 0 -10 5 -10 10 0 6 5
10 10 10 6 0 10 -4 10 -10z"/>
<path d="M1655 690 c-3 -5 3 -10 14 -10 11 0 23 5 26 10 3 6 -3 10 -14 10 -11
0 -23 -4 -26 -10z"/>
<path d="M534 665 c5 -12 15 -22 20 -23 6 -1 20 -3 31 -5 11 -2 25 -6 31 -10
6 -3 26 5 45 20 31 24 28 25 -18 6 -11 -4 -14 -3 -9 5 5 8 0 12 -14 12 -12 0
-18 -4 -15 -10 9 -14 -1 -12 -44 8 l-37 18 10 -21z"/>
<path d="M1451 677 c-34 -17 -38 -37 -7 -37 14 0 29 -6 33 -14 7 -12 15 -13
45 -3 44 14 58 36 25 39 -12 0 -28 2 -36 2 -8 1 -16 7 -19 14 -5 15 -11 15
-41 -1z"/>
<path d="M580 591 c0 -5 7 -12 16 -15 14 -5 15 -4 4 9 -14 17 -20 19 -20 6z"/>
<path d="M748 543 c-14 -21 -31 -49 -38 -63 -22 -44 13 -1 44 53 32 56 29 62
-6 10z"/>
<path d="M1540 576 c0 -2 8 -21 17 -42 13 -30 18 -35 21 -20 2 10 -2 22 -10
27 -18 12 -1 11 21 0 13 -7 17 -5 17 10 0 14 -5 17 -18 13 -10 -3 -18 -1 -18
5 0 6 -7 11 -15 11 -8 0 -15 -2 -15 -4z"/>
<path d="M2080 546 c0 -8 -11 -28 -25 -44 -14 -17 -25 -35 -25 -41 0 -6 -11
-18 -25 -27 -14 -9 -25 -22 -25 -30 0 -19 -17 -26 -37 -15 -75 40 -151 51
-177 25 -26 -25 -19 -31 33 -26 43 4 63 -2 155 -43 58 -26 120 -48 137 -49 28
-1 33 3 49 44 20 51 16 65 -32 117 -26 27 -30 36 -24 67 4 20 4 36 1 36 -3 0
-5 -6 -5 -14z"/>
<path d="M152 457 c-47 -47 -49 -59 -26 -117 14 -34 21 -40 46 -40 16 0 77 21
135 46 93 41 112 46 155 41 38 -5 48 -3 48 9 0 30 -47 39 -115 21 -35 -9 -70
-20 -78 -23 -15 -5 -80 43 -73 54 2 4 -9 17 -24 29 l-27 22 -41 -42z"/>
<path d="M1188 415 c-3 -3 -38 -6 -79 -6 -75 -1 -212 -18 -304 -38 -78 -17
-255 -73 -251 -80 2 -3 -7 -6 -20 -6 -21 0 -24 5 -25 40 0 22 -3 34 -6 27 -9
-22 -81 -52 -127 -52 -56 0 -93 -14 -99 -37 -4 -15 -5 -15 -6 3 -1 28 36 44
102 44 73 0 147 46 102 64 -26 9 -76 -5 -176 -50 -53 -24 -108 -44 -123 -44
-31 0 -30 3 -11 -50 8 -23 15 -63 15 -87 0 -37 3 -44 18 -39 38 11 148 38 159
39 6 1 33 -25 60 -58 37 -46 56 -61 79 -63 16 -2 101 15 189 37 391 97 488 97
885 1 220 -53 220 -53 267 15 45 64 63 68 148 30 l56 -24 9 25 c13 34 13 34
-12 34 -34 0 -98 20 -98 30 0 5 14 5 32 -1 18 -5 49 -9 70 -9 35 0 37 1 52 52
16 55 11 68 -25 68 -9 0 -59 20 -110 44 -100 46 -155 61 -178 47 -33 -21 40
-61 113 -61 45 0 96 -16 96 -31 0 -4 -12 -1 -27 7 -16 7 -49 14 -75 14 -55 0
-90 12 -118 40 l-20 20 0 -35 c0 -19 -5 -35 -11 -35 -19 0 -144 44 -147 52 -2
5 -14 8 -26 8 -12 0 -64 9 -114 20 -50 10 -126 22 -169 26 -43 4 -81 11 -84
16 -3 4 -8 6 -11 3z m191 -60 c94 -16 260 -63 406 -115 50 -18 111 -33 137
-34 61 -1 63 -16 2 -16 -28 0 -109 21 -212 55 -286 93 -378 110 -597 109 -198
-1 -336 -28 -570 -109 -106 -36 -176 -55 -207 -55 -27 0 -48 4 -48 8 0 5 12 7
28 5 32 -5 86 10 242 65 297 106 542 131 819 87z m-291 -109 c2 -10 -1 -23 -8
-30 -8 -8 -9 -6 -4 8 5 13 1 23 -12 33 -19 14 -19 15 1 11 11 -2 21 -12 23
-22z m38 9 c9 -8 11 -15 5 -15 -6 0 -11 -7 -11 -15 0 -8 -4 -15 -10 -15 -5 0
-10 14 -10 30 0 34 5 37 26 15z m64 3 c0 -9 3 -9 12 0 7 7 17 12 23 12 5 0 3
-5 -5 -10 -12 -8 -13 -13 -2 -30 7 -11 8 -20 3 -20 -6 0 -13 5 -17 11 -5 8 -9
8 -14 -1 -5 -7 -9 0 -12 19 -2 17 -1 31 4 31 4 0 8 -5 8 -12z m78 0 c17 -17
15 -33 -2 -19 -12 10 -15 8 -19 -11 -3 -15 -4 -12 -4 10 1 35 6 39 25 20z m28
-46 c-11 -10 -14 3 -8 33 l7 30 3 -28 c2 -16 1 -31 -2 -35z m-306 18 l0 -31
-30 22 c-34 25 -33 37 1 19 19 -11 21 -10 16 4 -4 9 -2 16 3 16 6 0 10 -14 10
-30z m62 -18 c8 -9 7 -11 -6 -6 -10 4 -16 16 -15 33 1 20 2 22 6 6 3 -11 10
-26 15 -33z m274 26 c-1 -14 6 -24 18 -26 15 -3 18 1 14 22 -3 14 -1 26 4 26
5 0 8 -12 6 -27 -2 -20 -9 -29 -26 -31 -24 -4 -38 18 -28 43 8 21 13 19 12 -7z
m83 -36 c1 -7 -3 -10 -9 -7 -5 3 -10 21 -9 38 1 31 1 31 9 7 4 -14 8 -31 9
-38z m-495 26 c8 -31 7 -38 -3 -38 -5 0 -11 14 -13 30 -5 35 7 41 16 8z m523
-8 c1 -18 -2 -28 -7 -25 -12 7 -14 55 -2 55 4 0 8 -14 9 -30z m48 -12 c-6 -26
-5 -30 9 -25 9 4 16 2 16 -4 0 -6 -10 -9 -22 -7 -22 3 -26 18 -13 56 9 25 16
11 10 -20z m-679 -13 c1 -41 -11 -46 -20 -10 -4 14 -12 25 -19 26 -6 0 -3 4 8
9 30 13 30 13 31 -25z m79 -13 c-3 -3 -12 3 -20 14 -14 18 -14 18 -15 -3 0
-13 -4 -23 -10 -23 -5 0 -7 7 -5 15 17 53 15 52 36 26 11 -13 17 -26 14 -29z
m669 27 c-10 -4 -13 -8 -6 -8 6 -1 12 -5 12 -11 0 -5 -7 -7 -15 -4 -8 4 -15 1
-15 -4 0 -6 8 -13 18 -15 13 -4 11 -5 -5 -6 -24 -1 -27 8 -17 45 4 16 11 20
27 16 20 -5 20 -6 1 -13z m-807 -19 c-3 -11 -1 -20 4 -20 5 0 9 -5 9 -10 0 -7
-6 -7 -19 0 -27 14 -34 13 -27 -5 3 -8 2 -15 -3 -15 -9 0 -22 52 -15 59 2 3
10 -1 16 -7 17 -17 31 -15 24 3 -3 8 0 15 5 15 6 0 9 -9 6 -20z m855 8 c-7 -7
-12 -20 -12 -30 0 -10 -5 -18 -11 -18 -6 0 -8 7 -5 16 3 9 6 22 6 30 0 8 8 14
17 14 13 0 14 -3 5 -12z m42 -20 c4 7 12 12 19 12 8 0 8 -3 -1 -12 -7 -7 -12
-20 -12 -30 0 -15 -3 -16 -18 -7 -13 8 -17 20 -14 38 5 22 6 23 12 6 4 -13 9
-15 14 -7z m-964 2 c0 -5 -2 -10 -4 -10 -3 0 -8 5 -11 10 -3 6 -1 10 4 10 6 0
11 -4 11 -10z m-360 -9 c0 -13 -57 -31 -96 -31 -47 0 -43 20 4 21 30 1 63 8
90 18 1 1 2 -3 2 -8z m320 -16 c0 -9 10 -20 23 -25 l22 -9 -22 0 c-12 -1 -27
8 -33 18 -13 25 -13 31 0 31 6 0 10 -7 10 -15z m1099 -29 c1 -5 -2 -6 -6 -3
-3 4 -12 2 -20 -4 -16 -14 -16 -8 -1 26 11 24 13 25 19 8 4 -10 8 -22 8 -27z
m-1121 8 c2 -11 -3 -26 -11 -33 -22 -18 -47 -3 -46 28 l1 26 7 -25 c4 -14 13
-25 21 -25 21 0 23 21 4 40 -17 16 -17 17 2 13 10 -2 20 -13 22 -24z m1072 7
c0 -6 -4 -13 -10 -16 -5 -3 -10 1 -10 9 0 9 5 16 10 16 6 0 10 -4 10 -9z
m-1153 -8 c-9 -2 -15 -9 -11 -14 3 -5 9 -7 13 -4 5 2 6 -7 3 -20 -5 -30 -18
-25 -24 10 -6 28 -1 35 21 34 13 -1 12 -2 -2 -6z"/>
<path d="M660 390 c-6 -11 -8 -20 -6 -20 3 0 10 9 16 20 6 11 8 20 6 20 -3 0
-10 -9 -16 -20z"/>
<path d="M935 91 c-116 -21 -288 -62 -282 -67 8 -8 220 15 226 24 8 13 94 25
86 13 -3 -6 11 -3 32 6 31 13 63 15 178 10 77 -3 154 -11 170 -17 29 -11 256
-42 263 -36 2 2 -46 15 -105 29 -250 60 -390 69 -568 38z"/>
<path d="M1275 40 c-3 -5 -1 -10 4 -10 6 0 11 5 11 10 0 6 -2 10 -4 10 -3 0
-8 -4 -11 -10z"/>
<path d="M928 33 c6 -2 18 -2 25 0 6 3 1 5 -13 5 -14 0 -19 -2 -12 -5z"/>
<path d="M1115 30 c-3 -5 -1 -10 4 -10 6 0 11 5 11 10 0 6 -2 10 -4 10 -3 0
-8 -4 -11 -10z"/>
</g>
</svg>
